{"title":"Good Night and Good Luck 2005 BDRip [H.264 - MP4 - AAC] ~Mindbre","uid":5177897,"size":1367340144,"categoryP":"video","categoryS":"movies","magnet":"?xt=urn:btih:bb83d8a0d9620f2dc075bb64963842bac054635f&amp;dn=Good+Night+and+Good+Luck+2005+BDRip+%5BH.264+-+MP4+-+AAC%5D+%7EMindbre&amp;tr=udp%3A%2F%2Ftracker.openbittorrent.com%3A80&amp;tr=udp%3A%2F%2Fopen.demonii.com%3A1337&amp;tr=udp%3A%2F%2Ftracker.coppersurfer.tk%3A6969&amp;tr=udp%3A%2F%2Fexodus.desync.com%3A6969","seeders":0,"leechers":1,"uploader":"mind3103","files":-1,"time":1259078835,"description":"imdb : http://www.imdb.com/title/tt0433383/\nTagline: We will not walk in fear of one another.\nPlot: Broadcast journalist Edward R. Murrow looks to bring down Senator Joseph McCarthy.\nTotal Size : 1.27 GB\n\nGeneral\nComplete name : Good Night and Good Luck 2005 BDRip [H.264 - MP4 - AAC] ~Mindbreaker.mp4\nFormat : H.264/AAC/MP4 - Anamophic\nSource : 720p.DTS.x264-CHD\nFile size : 1.27 GiB\nDuration : 1h 32mn\nOverall bit rate : 1 964 Kbps\n\n\nVideo\nID : 1\nFormat : AVC\nFormat/Info : Advanced Video Codec\nFormat profile : &lt;a class=&quot;__cf_email__&quot; href=&quot;/cdn-cgi/l/email-protection&quot; data-cfemail=&quot;521a3b353a121e617c62&quot;&gt;[email&amp;#160;protected]&lt;/a&gt;&lt;script cf-hash='f9e31' type=&quot;text/javascript&quot;&gt;\n/* &lt;![CDATA[ */!function(){try{var t=&quot;currentScript&quot;in document?document.currentScript:function(){for(var t=document.getElementsByTagName(&quot;script&quot;),e=t.length;e--;)if(t[e].getAttribute(&quot;cf-hash&quot;))return t[e]}();if(t&amp;&amp;t.previousSibling){var e,r,n,i,c=t.previousSibling,a=c.getAttribute(&quot;data-cfemail&quot;);if(a){for(e=&quot;&quot;,r=parseInt(a.substr(0,2),16),n=2;a.length-n;n+=2)i=parseInt(a.substr(n,2),16)^r,e+=String.fromCharCode(i);e=document.createTextNode(e),c.parentNode.replaceChild(e,c)}}}catch(u){}}();/* ]]&gt; */&lt;/script&gt;\nDuration : 1h 32mn\nBit rate : 1800 Kbps\nWidth : 720 pixels\nHeight : 304 pixels\nDisplay aspect ratio : 2.35:1\nFrame rate : 23.976 fps\nBits/(Pixel*Frame) : 0.343\nStream size : 1.17 GiB (92%)\nWriting library : x264 core 65\n\nAudio\nID : 2\nFormat : AAC\nFormat/Info : Advanced Audio Codec\nFormat profile : LC\nDuration : 1h 32mn\nBit rate : 160 Kbps\nChannel(s) : 2 channels\nSampling rate : 48.0 KHz\nStream size : 106 MiB (8%)\nLanguage : English\n\nSubtitle\nFormat : SubRip\nLanguage : Dutch &amp; English\nSource : ondertitels.com &amp; opensubtitles.org &lt;a href=&quot;\nhttp://genesis.1337x.org:1337/announce&quot; rel=&quot;nofollow&quot; target=&quot;_NEW&quot;&gt;\nhttp://genesis.1337x.org:1337/announce&lt;/a&gt;\nhttp://tracker.openbittorrent.com/announce\n","torrent":{"xt":"urn:btih:bb83d8a0d9620f2dc075bb64963842bac054635f","amp;dn":"Good+Night+and+Good+Luck+2005+BDRip+%5BH.264+-+MP4+-+AAC%5D+%7EMindbre","amp;tr":["udp%3A%2F%2Ftracker.openbittorrent.com%3A80","udp%3A%2F%2Fopen.demonii.com%3A1337","udp%3A%2F%2Ftracker.coppersurfer.tk%3A6969","udp%3A%2F%2Fexodus.desync.com%3A6969"],"infoHash":"bb83d8a0d9620f2dc075bb64963842bac054635f","infoHashBuffer":{"type":"Buffer","data":[187,131,216,160,217,98,15,45,192,117,187,100,150,56,66,186,192,84,99,95]},"announce":[],"urlList":[]}}